<svg id="icons" xmlns="http://www.w3.org/2000/svg" viewBox="0 0 128 128"><defs><style>.cls-1{fill:#ffe300;}.cls-2{fill:#303442;opacity:0.08;}.cls-3{fill:none;stroke:#303442;stroke-linecap:round;stroke-linejoin:round;stroke-width:4px;}</style></defs><title>star</title><path class="cls-1" d="M109.65,50.86a2.0076,2.0076,0,0,1-.39,2.69L84.38,73.82a2.00441,2.00441,0,0,0-.63,2.17L93.9,107.38a2.00671,2.00671,0,0,1-.76,2.26,1.99437,1.99437,0,0,1-2.38-.07L65.24,89.51a2.01211,2.01211,0,0,0-2.48,0L37.24,109.57a2.00056,2.00056,0,0,1-3.14-2.19L44.25,75.99a2.00441,2.00441,0,0,0-.63-2.17L18.74,53.55a2.0076,2.0076,0,0,1-.39-2.69A2.09662,2.09662,0,0,1,20.09,50H49.23a2.00037,2.00037,0,0,0,1.87-1.3L62.13,19.3a1.995,1.995,0,0,1,3.74,0L76.9,48.7A2.00037,2.00037,0,0,0,78.77,50h29.14A2.09662,2.09662,0,0,1,109.65,50.86Z"/><path class="cls-2" d="M91.48639,99.91553A1.97345,1.97345,0,0,1,90.76,99.57L65.24,79.51a2.01206,2.01206,0,0,0-2.48,0L37.24,99.57a1.97331,1.97331,0,0,1-.72559.3432L34.1,107.38a2.00057,2.00057,0,0,0,3.14,2.19L62.76,89.51a2.01206,2.01206,0,0,1,2.48,0l25.52,20.06a2.00057,2.00057,0,0,0,3.14-2.19Z"/><path class="cls-3" d="M109.65,50.86a2.09662,2.09662,0,0,0-1.74-.86H78.77a2.00037,2.00037,0,0,1-1.87-1.3L65.87,19.3a1.995,1.995,0,0,0-3.74,0L51.1,48.7A2.00037,2.00037,0,0,1,49.23,50H20.09a2.09662,2.09662,0,0,0-1.74.86,2.0076,2.0076,0,0,0,.39,2.69L43.62,73.82a2.00441,2.00441,0,0,1,.63,2.17L34.1,107.38a2.00056,2.00056,0,0,0,3.14,2.19L62.76,89.51a2.01211,2.01211,0,0,1,2.48,0l25.52,20.06a2.00056,2.00056,0,0,0,3.14-2.19L83.75,75.99a2.00441,2.00441,0,0,1,.63-2.17l24.88-20.27A2.0076,2.0076,0,0,0,109.65,50.86Z"/></svg>